# xmcd
#
# Track frame offsets: 
#        150
#        20288
#        38655
#        56210
#        72727
#        92432
#        108794
#        127017
#        148983
#        175546
#
# Disc length: 2545 seconds
#
# Revision: 0
# Processed by: cddbd v1.5.2PL0 Copyright (c) Steve Scherf et al.
# Submitted via: ExactAudioCopy v1.0b4
#
DISCID=8809ef0a
DTITLE=Ben Green - Can't Live Without 'Em
DYEAR=2012
DGENRE=Blues
TTITLE0=Ramblin' Roll
TTITLE1=Blues For Breaksfast
TTITLE2=February Morning
TTITLE3=Walk On Boy
TTITLE4=Slow Food
TTITLE5=Deep Dark Woods
TTITLE6=Stealing Sugar
TTITLE7=Another Rock n' Roller
TTITLE8=When You're Gone
TTITLE9=Can't Live Without 'Em
EXTD=
EXTT0=
EXTT1=
EXTT2=
EXTT3=
EXTT4=
EXTT5=
EXTT6=
EXTT7=
EXTT8=
EXTT9=
PLAYORDER=
